# xmcd CD database file
#
# Track frame offsets:
#	150
#	16928
#	34823
#	50547
#	68085
#	79134
#	96047
#	116398
#	124488
#	139320
#	154940
#	160273
#	181773
#	201816
#	224203
#	242123
#
# Disc length: 3495 seconds
#
# Revision: 6
# Processed by: cddbd v1.5.2PL0 Copyright (c) Steve Scherf et al.
# Submitted via: CDex 1.70beta2
#
DISCID=e50da510
DTITLE=Janis Joplin - PEARL -Legacy Edition- [Disc 1]
DYEAR=1971
DGENRE=Blues
TTITLE0=Move Over
TTITLE1=Cry Baby
TTITLE2=A Woman Left Lonely
TTITLE3=Half Moon
TTITLE4=Buried Alive in the Blues
TTITLE5=My Baby
TTITLE6=Me And Bobby McGee
TTITLE7=Mercedes Benz
TTITLE8=Trust Me
TTITLE9=Get It While You Can
TTITLE10=Happy Birthday, John (Happy Trails) [Bonus Track]
TTITLE11=Me And Bobby McGee (demo version) [Bonus Track]
TTITLE12=Move Over (alternate version) [Bonus Track]
TTITLE13=Cry Baby (alternate version) [Bonus Track]
TTITLE14=My Baby (alternate version) [Bonus Track]
TTITLE15=Pearl (instrumental) [Bonus Track]
EXTD=YEAR: 1971
EXTT0=
EXTT1=
EXTT2=
EXTT3=
EXTT4=
EXTT5=
EXTT6=
EXTT7=
EXTT8=
EXTT9=
EXTT10=
EXTT11=
EXTT12=
EXTT13=
EXTT14=
EXTT15=
PLAYORDER=
